<svg width="54" height="51" viewBox="0 0 54 51" fill="none" xmlns="http://www.w3.org/2000/svg">
<path d="M27.4617 2.0159L33.3455 16.1623C33.8495 17.3742 34.9892 18.2022 36.2974 18.307L51.5697 19.5314C52.013 19.5669 52.1928 20.1202 51.855 20.4095L40.2192 30.3769C39.2224 31.2307 38.7871 32.5704 39.0916 33.8471L42.6466 48.7502C42.7498 49.1828 42.2791 49.5248 41.8996 49.2929L28.8244 41.3067C27.7043 40.6225 26.2957 40.6225 25.1756 41.3067L12.1004 49.2929C11.7209 49.5248 11.2502 49.1828 11.3534 48.7502L14.9084 33.8471C15.2129 32.5704 14.7776 31.2307 13.7808 30.3769L2.14499 20.4095C1.80723 20.1202 1.98699 19.5669 2.43032 19.5314L17.7026 18.307C19.0108 18.2022 20.1505 17.3742 20.6545 16.1623L26.5383 2.0159C26.7091 1.60526 27.2909 1.60526 27.4617 2.0159Z" fill="#F1C644" stroke="#F1C644" stroke-width="3"/>
</svg>
